<svg xmlns="http://www.w3.org/2000/svg" viewBox="0 0 244.95 276.18"><defs><style>.cls-1{fill:#434343;}</style></defs><g id="圖層_2" data-name="圖層 2"><g id="圖層_3" data-name="圖層 3"><path class="cls-1" d="M132.73,208.85c.4,12.56,1.28,24.12,6,35,5.77,13.27,16.2,19.95,30.41,20.72,3.12.17,3.62,1.14,3.55,3.92-.17,7.61,0,7.61-7.63,7.61-29.75,0-59.49-.05-89.23.07-3,0-3.81-.65-3.72-3.68.23-7.23.05-7.28,7.15-8.25,12.63-1.71,21.53-8.42,26.68-20,4.88-11,5.87-22.63,6.13-34.82-27.59,26.8-62.86,22.93-83.25,9.13A65.25,65.25,0,0,1,2.22,147.66c6.64-24.71,29.63-48.42,65.44-48C57.08,81.73,54.63,63,61.29,43.39A62.84,62.84,0,0,1,86,11.13c23.19-15.84,55.19-14.64,76.57,2.74,12.87,10.47,21,23.77,23.68,40.2,2.66,16.17-.43,31.32-9,45.41,36.9,3.57,58.23,19.82,65.82,49.91,6.57,26-4.34,53.91-27.19,69.19-13.11,8.77-27.66,12-43.24,10.3C157.22,227.21,144.11,220.52,132.73,208.85Z"/></g></g></svg>