<svg xmlns="http://www.w3.org/2000/svg" viewBox="0 0 251.39 284.88"><defs><style>.cls-1{fill:#f45231;}</style></defs><g id="圖層_2" data-name="圖層 2"><g id="圖層_2-2" data-name="圖層 2"><path class="cls-1" d="M125.55,284.88a455,455,0,0,0-33.44-46.16c-26.46-32.46-54.4-63.54-86.3-90.84-2.09-1.8-5.61-3.51-5.8-5.51-.22-2.3,3.65-3.67,5.72-5.45C37.57,109.64,65.46,78.6,91.91,46.19A450.24,450.24,0,0,0,125.39,0c5.25,7.55,10.12,14.93,15.35,22.05a760.14,760.14,0,0,0,88.07,100c6.81,6.49,13.83,12.76,21.23,18.58,1.67,1.31,1.91,1.9.05,3.42-30,24.44-55.93,52.85-80.85,82.26C153.63,244.74,138.86,263.82,125.55,284.88Z"/></g></g></svg>