<svg xmlns="http://www.w3.org/2000/svg" viewBox="0 0 244.93 271.05"><defs><style>.cls-1{fill:#434343;}</style></defs><g id="圖層_2" data-name="圖層 2"><g id="圖層_5" data-name="圖層 5"><path class="cls-1" d="M132.87,204c.25,11.83,1.18,22.76,5.3,33.17,5.55,14,16,21.45,31,22.22,2.93.15,3.78.85,3.69,3.85-.22,7.78-.06,7.79-7.91,7.79-29.48,0-59,0-88.43.07-3.09,0-4.43-.39-4.27-4,.31-7,.07-7,7-7.93,15.43-2.17,24.56-11.44,29.08-25.87,2.49-7.91,3.34-16.09,3.78-24.32.06-1.15.62-2.75-.46-3.34-1.47-.79-2.2,1-3.1,1.79C80.23,232.13,38.8,229.2,15,200.76a64.16,64.16,0,0,1-1-81.24A413.88,413.88,0,0,1,43.21,86.93c4-4.07,7.33-8.58,11.15-12.74Q87.54,38,120.31,1.5c1.77-2,2.58-2,4.41,0,34.09,37.73,68.35,75.3,102.38,113.07,29.14,32.35,21.63,81.26-15.76,101.55-24.28,13.17-52.59,10.53-74.1-8.17C136,206.83,134.74,205.66,132.87,204Zm-21.07.39c-.09.1-.24.19-.23.26a2,2,0,0,0,.21.51c.08-.08.24-.17.23-.24A2.77,2.77,0,0,0,111.8,204.34Z"/></g></g></svg>